<svg width="16" height="16" viewBox="0 0 16 16" fill="none" xmlns="http://www.w3.org/2000/svg">
<g id="alert/error_outline_24px">
<path id="icon/outlined/alert/error_outline_24px" fill-rule="evenodd" clip-rule="evenodd" d="M7.99325 1.33337C4.31325 1.33337 1.33325 4.32004 1.33325 8.00004C1.33325 11.68 4.31325 14.6667 7.99325 14.6667C11.6799 14.6667 14.6666 11.68 14.6666 8.00004C14.6666 4.32004 11.6799 1.33337 7.99325 1.33337ZM8.66659 8.66671V4.66671H7.33325V8.66671H8.66659ZM8.66659 11.3334V10H7.33325V11.3334H8.66659ZM2.66659 8.00004C2.66659 10.9467 5.05325 13.3334 7.99992 13.3334C10.9466 13.3334 13.3333 10.9467 13.3333 8.00004C13.3333 5.05337 10.9466 2.66671 7.99992 2.66671C5.05325 2.66671 2.66659 5.05337 2.66659 8.00004Z" fill="#205F7E"/>
</g>
</svg>
