<svg width="14" height="14" viewBox="0 0 14 14" fill="none" xmlns="http://www.w3.org/2000/svg">
<path fill-rule="evenodd" clip-rule="evenodd" d="M6.99325 0.333374C3.31325 0.333374 0.333252 3.32004 0.333252 7.00004C0.333252 10.68 3.31325 13.6667 6.99325 13.6667C10.6799 13.6667 13.6666 10.68 13.6666 7.00004C13.6666 3.32004 10.6799 0.333374 6.99325 0.333374ZM7.66659 7.66671V3.66671H6.33325V7.66671H7.66659ZM7.66659 10.3334V9.00004H6.33325V10.3334H7.66659ZM1.66659 7.00004C1.66659 9.94671 4.05325 12.3334 6.99992 12.3334C9.94659 12.3334 12.3333 9.94671 12.3333 7.00004C12.3333 4.05337 9.94659 1.66671 6.99992 1.66671C4.05325 1.66671 1.66659 4.05337 1.66659 7.00004Z" fill="#BB2124"/>
</svg>
