<svg width="200" height="195" viewBox="0 0 200 195" fill="none" xmlns="http://www.w3.org/2000/svg">
<g clip-path="url(#clip0_4_548)">
<path d="M126.968 43.8549H73.0769C71.8488 43.8564 70.6715 44.3443 69.8031 45.2117C68.9347 46.0791 68.4462 47.2551 68.4447 48.4818V168.118L67.827 168.306L54.6066 172.35C53.9801 172.541 53.3033 172.475 52.7249 172.168C52.1466 171.861 51.7138 171.337 51.5217 170.712L12.197 42.4082C12.0056 41.7823 12.0709 41.1062 12.3783 40.5284C12.6858 39.9506 13.2104 39.5183 13.8368 39.3267L34.2094 33.0958L93.2704 15.0386L113.643 8.8077C113.953 8.71239 114.279 8.67908 114.602 8.70969C114.925 8.74029 115.238 8.83421 115.525 8.98606C115.811 9.13791 116.065 9.34471 116.272 9.59463C116.478 9.84455 116.633 10.1327 116.728 10.4425L126.78 43.2379L126.968 43.8549Z" fill="#F2F2F2"/>
<path d="M138.728 43.2379L126.613 3.71194C126.412 3.05336 126.082 2.44091 125.643 1.90958C125.205 1.37825 124.666 0.938463 124.057 0.615339C123.448 0.292214 122.781 0.0920873 122.095 0.0264013C121.409 -0.0392848 120.716 0.0307573 120.057 0.232518L91.4143 8.98968L32.3566 27.05L3.71394 35.8102C2.38336 36.2183 1.26924 37.1371 0.616138 38.3649C-0.0369638 39.5926 -0.175692 41.029 0.230411 42.3588L41.6364 177.442C41.9663 178.516 42.632 179.456 43.5357 180.123C44.4394 180.791 45.5336 181.152 46.6578 181.153C47.1781 181.154 47.6955 181.076 48.1925 180.922L67.827 174.919L68.4447 174.728V174.083L67.827 174.272L48.0104 180.333C46.8359 180.69 45.5674 180.568 44.483 179.993C43.3987 179.417 42.5871 178.436 42.2263 177.264L0.823463 42.1768C0.644686 41.596 0.582378 40.9856 0.640104 40.3807C0.697829 39.7757 0.87445 39.1881 1.15986 38.6514C1.44528 38.1148 1.83388 37.6396 2.3034 37.2532C2.77292 36.8667 3.31414 36.5766 3.89609 36.3994L32.5387 27.6391L91.5966 9.58193L120.239 0.821681C120.681 0.687131 121.14 0.618526 121.601 0.618097C122.591 0.620318 123.555 0.939252 124.351 1.52818C125.147 2.11711 125.733 2.9451 126.023 3.89085L138.083 43.2379L138.274 43.8549H138.916L138.728 43.2379Z" fill="#3F3D56"/>
<path d="M37.8858 39.4275C37.2905 39.4271 36.7111 39.2362 36.2325 38.8827C35.7539 38.5293 35.4013 38.032 35.2264 37.4637L31.2488 24.4862C31.1419 24.1376 31.1048 23.7714 31.1396 23.4085C31.1745 23.0456 31.2805 22.6931 31.4518 22.3711C31.623 22.0492 31.8561 21.764 32.1376 21.5321C32.4192 21.3001 32.7438 21.1258 33.0928 21.0191L87.4254 4.40429C88.1303 4.18946 88.8916 4.26273 89.5424 4.60801C90.1933 4.9533 90.6803 5.5424 90.8968 6.24601L94.8744 19.2236C95.0894 19.9276 95.0159 20.6881 94.6703 21.3381C94.3246 21.9881 93.7349 22.4746 93.0306 22.6909L38.6977 39.3057C38.4346 39.3863 38.161 39.4274 37.8858 39.4275Z" fill="#508C9B"/>
<path d="M58.7223 13.8667C62.1334 13.8667 64.8986 11.1047 64.8986 7.69751C64.8986 4.29036 62.1334 1.52832 58.7223 1.52832C55.3112 1.52832 52.546 4.29036 52.546 7.69751C52.546 11.1047 55.3112 13.8667 58.7223 13.8667Z" fill="#508C9B"/>
<path d="M58.7223 11.604C60.8823 11.604 62.6334 9.85502 62.6334 7.69751C62.6334 5.53999 60.8823 3.79099 58.7223 3.79099C56.5623 3.79099 54.8113 5.53999 54.8113 7.69751C54.8113 9.85502 56.5623 11.604 58.7223 11.604Z" fill="white"/>
<path d="M186.103 179.577H81.7238C81.0279 179.576 80.3607 179.3 79.8686 178.808C79.3765 178.317 79.0997 177.65 79.0989 176.955V52.029C79.0997 51.3339 79.3765 50.6674 79.8686 50.1759C80.3607 49.6844 81.0279 49.4079 81.7238 49.4071H186.103C186.799 49.4079 187.467 49.6844 187.959 50.1759C188.451 50.6675 188.728 51.3339 188.728 52.029V176.955C188.728 177.65 188.451 178.317 187.959 178.808C187.466 179.3 186.799 179.576 186.103 179.577Z" fill="#E6E6E6"/>
<path d="M138.083 43.2379H73.0769C71.6852 43.2399 70.351 43.793 69.3669 44.776C68.3828 45.7589 67.829 47.0916 67.827 48.4817V174.271L68.4447 174.083V48.4817C68.4462 47.2551 68.9347 46.0791 69.8031 45.2117C70.6715 44.3443 71.8488 43.8563 73.0769 43.8548H138.274L138.083 43.2379ZM194.75 43.2379H73.0769C71.6852 43.2399 70.351 43.793 69.3669 44.776C68.3828 45.7589 67.829 47.0916 67.827 48.4817V189.756C67.829 191.146 68.3828 192.479 69.3669 193.462C70.351 194.445 71.6852 194.998 73.0769 195H194.75C196.142 194.998 197.476 194.445 198.46 193.462C199.444 192.479 199.998 191.146 200 189.756V48.4817C199.998 47.0916 199.444 45.7589 198.46 44.776C197.476 43.793 196.142 43.2399 194.75 43.2379ZM199.382 189.756C199.381 190.983 198.892 192.159 198.024 193.026C197.156 193.894 195.978 194.382 194.75 194.383H73.0769C71.8488 194.382 70.6715 193.894 69.8031 193.026C68.9347 192.159 68.4462 190.983 68.4447 189.756V48.4817C68.4462 47.2551 68.9347 46.0791 69.8031 45.2117C70.6715 44.3443 71.8488 43.8563 73.0769 43.8548H194.75C195.978 43.8563 197.156 44.3443 198.024 45.2117C198.892 46.0791 199.381 47.2551 199.382 48.4817V189.756Z" fill="#3F3D56"/>
<path d="M162.325 56.8102H105.503C104.766 56.8093 104.059 56.5166 103.538 55.9961C103.017 55.4757 102.724 54.77 102.723 54.034V40.4618C102.724 39.7258 103.017 39.0201 103.538 38.4997C104.059 37.9792 104.766 37.6865 105.503 37.6857H162.325C163.061 37.6865 163.768 37.9792 164.289 38.4997C164.81 39.0201 165.103 39.7258 165.104 40.4618V54.034C165.103 54.77 164.81 55.4757 164.289 55.9961C163.768 56.5166 163.061 56.8093 162.325 56.8102Z" fill="#508C9B"/>
<path d="M133.914 38.6111C137.325 38.6111 140.09 35.849 140.09 32.4419C140.09 29.0347 137.325 26.2727 133.914 26.2727C130.502 26.2727 127.737 29.0347 127.737 32.4419C127.737 35.849 130.502 38.6111 133.914 38.6111Z" fill="#508C9B"/>
<path d="M133.914 36.1995C135.991 36.1995 137.675 34.5171 137.675 32.4419C137.675 30.3666 135.991 28.6843 133.914 28.6843C131.836 28.6843 130.152 30.3666 130.152 32.4419C130.152 34.5171 131.836 36.1995 133.914 36.1995Z" fill="white"/>
</g>
<defs>
<clipPath id="clip0_4_548">
<rect width="200" height="195" fill="white"/>
</clipPath>
</defs>
</svg>
