<svg width="300" height="275" viewBox="0 0 300 275" fill="none" xmlns="http://www.w3.org/2000/svg">
<g clip-path="url(#clip0_2_300)">
<path d="M207.991 274.146H118.32C106.636 274.146 97.1306 264.64 97.1306 252.956V21.6181C97.1306 9.93395 106.636 0.428345 118.32 0.428345H207.991C219.675 0.428345 229.18 9.93395 229.18 21.6181V252.956C229.18 264.64 219.675 274.146 207.991 274.146Z" fill="#2F2E41"/>
<path d="M208.082 268.427H118.229C109.462 268.427 102.329 261.295 102.329 252.528V20.7469C102.329 11.98 109.462 4.84735 118.229 4.84735H208.082C216.849 4.84735 223.982 11.98 223.982 20.7469V252.528C223.982 261.295 216.849 268.427 208.082 268.427Z" fill="white"/>
<path d="M177.192 19.9239H148.599C145.302 19.9239 142.62 17.242 142.62 13.9452C142.62 10.6485 145.302 7.96661 148.599 7.96661H177.192C180.489 7.96661 183.171 10.6485 183.171 13.9452C183.171 17.242 180.489 19.9239 177.192 19.9239Z" fill="#2F2E41"/>
<path d="M74.4219 114.125L84.7827 117.531V102.615H75.3815L74.4219 114.125Z" fill="#A0616A"/>
<path d="M83.5014 106.743C89.2031 106.743 93.8253 102.121 93.8253 96.4195C93.8253 90.7178 89.2031 86.0956 83.5014 86.0956C77.7997 86.0956 73.1775 90.7178 73.1775 96.4195C73.1775 102.121 77.7997 106.743 83.5014 106.743Z" fill="#A0616A"/>
<path d="M80.8702 97.2263L82.2939 98.9557L84.8669 94.4529C84.8669 94.4529 88.1518 94.6216 88.1518 92.1856C88.1518 89.7496 91.1678 89.6811 91.1678 89.6811C91.1678 89.6811 95.4334 82.2308 86.5964 84.1922C86.5964 84.1922 80.4642 79.9899 77.4166 83.5806C77.4166 83.5806 68.0682 88.2891 70.7414 96.4881L75.1863 104.935L76.1934 103.021C76.1934 103.021 75.5817 94.9907 80.8702 97.2263Z" fill="#2F2E43"/>
<path d="M79.9161 255.428H71.5747V267.259H79.9161V255.428Z" fill="#A0616A"/>
<path d="M78.9933 274.035C77.5644 274.167 70.4305 274.726 70.0719 273.091C69.745 271.588 70.2248 270.017 70.2934 269.806C70.9788 262.983 71.2319 262.904 71.3848 262.857C71.6274 262.788 72.3392 263.12 73.4886 263.864L73.5624 263.911L73.5783 263.996C73.5993 264.101 74.1108 266.606 76.5257 266.226C78.1813 265.962 78.7191 265.599 78.8931 265.419C78.7507 265.356 78.5768 265.245 78.4555 265.05C78.2762 264.771 78.2446 264.412 78.3606 263.985C78.6717 262.852 79.6049 261.175 79.6418 261.106L79.7473 260.916L89.2276 267.312L95.0802 268.984C95.5231 269.11 95.8764 269.427 96.0557 269.848C96.3035 270.439 96.1506 271.124 95.676 271.551C94.611 272.506 92.5019 274.146 90.2821 274.346C89.6916 274.399 88.9112 274.42 88.0359 274.42C84.3714 274.42 79.0302 274.04 78.988 274.035L78.9933 274.035Z" fill="#2F2E43"/>
<path d="M53.8925 237.665L46.3506 246.781L52.7777 252.098L60.3196 242.982L53.8925 237.665Z" fill="#A0616A"/>
<path d="M47.7581 256.735C46.577 255.923 40.7191 251.811 41.4836 250.324C42.1901 248.958 43.561 248.056 43.7508 247.935C48.6281 243.116 48.8759 243.216 49.0235 243.279C49.2555 243.38 49.5877 244.091 50.0042 245.394L50.0306 245.473L49.9884 245.547C49.9357 245.641 48.7335 247.898 50.8373 249.143C52.282 249.997 52.9306 250.055 53.1731 250.028C53.1046 249.891 53.0413 249.691 53.0677 249.464C53.1046 249.137 53.3102 248.837 53.6793 248.584C54.6442 247.909 56.4263 247.213 56.5054 247.181L56.7058 247.102L59.9327 258.074L63.3757 263.094C63.6341 263.474 63.7079 263.943 63.5761 264.386C63.3916 264.998 62.8379 265.43 62.1947 265.456C60.7658 265.514 58.0978 265.43 56.2576 264.17C55.7726 263.837 55.1556 263.358 54.4807 262.799C51.6599 260.463 47.7845 256.767 47.7528 256.735L47.7581 256.735Z" fill="#2F2E43"/>
<path d="M93.7094 164.163H65.0999L71.4587 258.734H80.997L93.7146 164.163L93.7094 164.163Z" fill="#2F2E43"/>
<path d="M87.8829 169.372L93.7092 164.163L90.7934 216.178L58.2136 247.171L50.0884 240.458L69.0753 215.824L87.8829 169.372Z" fill="#2F2E43"/>
<path d="M87.8831 108.536L73.7523 106.243L69.3655 113.914C63.787 123.669 61.5145 134.963 62.8801 146.115L65.0999 164.173H93.7094L87.8831 108.541L87.8831 108.536Z" fill="#508C9B"/>
<path d="M76.4096 181.194C76.9948 184.109 75.9034 186.772 73.9789 187.141C72.0491 187.505 70.0138 185.438 69.4285 182.517C69.1807 181.352 69.2229 180.15 69.5551 179.005L67.2351 166.609L73.2987 165.666L74.9385 177.988C75.6872 178.932 76.1934 180.028 76.4096 181.199L76.4096 181.194Z" fill="#A0616A"/>
<path d="M69.0332 177.835L60.1277 150.322V150.28L63.4917 121.95C64.0084 117.61 67.6887 114.341 72.0545 114.341C74.7277 114.341 77.2059 115.549 78.8509 117.658C80.496 119.767 81.0707 122.461 80.4222 125.061L74.4799 148.825L75.8982 175.794L69.0279 177.835H69.0332Z" fill="#508C9B"/>
<path d="M117.477 86.5493H139.118" stroke="#090814" stroke-width="2" stroke-miterlimit="10"/>
<path d="M117.477 94.7516H163" stroke="#090814" stroke-width="2" stroke-miterlimit="10"/>
<path d="M117.477 91.0606H182.685" stroke="#090814" stroke-width="2" stroke-miterlimit="10"/>
<path d="M112.555 92.2909C114.594 92.2909 116.246 90.6384 116.246 88.5999C116.246 86.5614 114.594 84.9089 112.555 84.9089C110.517 84.9089 108.864 86.5614 108.864 88.5999C108.864 90.6384 110.517 92.2909 112.555 92.2909Z" fill="#508C9B"/>
<path d="M209.671 151.758H120.429C118.688 151.758 117.272 150.341 117.272 148.6V101.805C117.272 100.064 118.688 98.6477 120.429 98.6477H209.671C211.412 98.6477 212.828 100.064 212.828 101.805V148.6C212.828 150.341 211.412 151.758 209.671 151.758Z" fill="#D3D3D3"/>
<path d="M161.826 153.607L161.803 153.584L161.78 153.607C160.67 152.497 158.87 152.499 157.761 153.609C156.651 154.72 156.629 156.542 157.739 157.652L161.806 161.715L165.87 157.647C166.98 156.536 166.956 154.714 165.846 153.604C164.736 152.495 162.936 152.496 161.826 153.606L161.826 153.607Z" fill="#508C9B"/>
<path d="M0 274.161H14.5755H27.531H28.0518H39.4571H117.563H136.15H300" stroke="#090814" stroke-width="2" stroke-miterlimit="10"/>
</g>
<defs>
<clipPath id="clip0_2_300">
<rect width="300" height="274.143" fill="white" transform="translate(0 0.428345)"/>
</clipPath>
</defs>
</svg>
